# 3ds Max Wavefront OBJ Exporter v0.97b - (c)2007 guruware
# File Created: 22.09.2015 16:37:43

mtllib 3d-model.mtl

#
# object Group_001
#

v  70.9691 358.0267 12.5000
v  3.8500 522.8905 0.0000
v  -38.7540 350.0612 12.5000
v  -65.0847 243.2470 12.5000
v  28.3651 185.1975 12.5000
v  112.4509 256.1353 12.5000
v  -65.0847 243.2470 -12.5000
v  -216.2897 337.1730 0.0000
v  -38.7540 350.0612 -12.5000
v  70.9691 358.0267 -12.5000
v  28.3651 185.1975 -12.5000
v  112.4509 256.1353 -12.5000
v  248.5047 370.9150 0.0000
v  -107.6888 70.4178 -0.0000
v  179.5700 91.2715 0.0000
# 15 vertices

vn -0.0053 0.0734 0.9973
vn -0.0000 -0.0000 1.0000
vn -0.0715 0.0176 -0.9973
vn -0.0053 0.0734 -0.9973
vn 0.0000 0.0000 -1.0000
vn 0.6448 -0.7643 -0.0000
vn -0.0389 -0.0626 -0.9973
vn -0.0715 0.0176 0.9973
vn -0.0389 -0.0626 0.9973
vn 0.0475 -0.0563 0.9973
vn 0.0682 0.0278 0.9973
vn -0.0724 0.9974 0.0000
vn -0.9709 0.2393 -0.0000
vn -0.5277 -0.8495 -0.0000
vn 0.9262 0.3771 0.0000
vn 0.0682 0.0278 -0.9973
vn 0.0475 -0.0563 -0.9973
# 17 vertex normals

vt 0.0000 0.0000 0.0000
# 1 texture coords

g Group_001
usemtl wire_143224087
s off
f 1/1/1 2/1/1 3/1/1 
f 1/1/2 3/1/2 4/1/2 5/1/2 
f 1/1/2 5/1/2 6/1/2 
f 7/1/3 8/1/3 9/1/3 
f 10/1/4 9/1/4 2/1/4 
f 7/1/5 9/1/5 10/1/5 11/1/5 
f 11/1/5 10/1/5 12/1/5 
f 13/1/6 6/1/6 12/1/6 
f 11/1/7 14/1/7 7/1/7 
f 4/1/8 3/1/8 8/1/8 
f 5/1/9 4/1/9 14/1/9 
f 15/1/10 6/1/10 5/1/10 
f 13/1/11 1/1/11 6/1/11 
f 1/1/12 13/1/12 10/1/12 
f 7/1/13 14/1/13 4/1/13 
f 5/1/14 11/1/14 15/1/14 
f 7/1/14 11/1/14 5/1/14 4/1/14 
f 10/1/12 9/1/12 3/1/12 1/1/12 
f 6/1/15 12/1/15 10/1/15 1/1/15 
f 2/1/15 1/1/15 10/1/15 
f 2/1/13 9/1/13 3/1/13 
f 13/1/16 12/1/16 10/1/16 
f 5/1/6 11/1/6 12/1/6 6/1/6 
f 4/1/14 8/1/14 7/1/14 
f 7/1/13 4/1/13 3/1/13 9/1/13 
f 6/1/15 15/1/15 12/1/15 
f 15/1/17 11/1/17 12/1/17 
f 3/1/12 9/1/12 8/1/12 
f 5/1/6 14/1/6 11/1/6 
# 7 polygons - 22 triangles

